# xmcd CD database file generated by Grip 3.2.0
# 
# Track frame offsets:
#       150
#       18469
#       32777
#       50244
#       63669
#       78223
#       93760
#       105940
#       124326
#       139042
#       156075
#       174154
#       189006
#       204674
#       218483
#       232717
#       245010
#       258237
#       268795
#       287401
#       300637
# 
# Disc length: 4238 seconds
# 
# Revision: 2
# Processed by: cddbd v1.5.2PL0 Copyright (c) Steve Scherf et al.
# Submitted via: Grip 3.2.0
# 
DISCID=14108c15
DTITLE=Corina Chiriac - Opriţi timpul!
DYEAR=2004
DGENRE=Oldies
TTITLE0=Ce dor mi-a fost - 1995
TTITLE1=Ce mică-i vacanţa mare - 1984
TTITLE2=Mama, doar mama - 1983
TTITLE3=Uită nostalgia - 1976
TTITLE4=Permiteţi - 1986
TTITLE5=Ani fericiţi - 1974
TTITLE6=În locul tău - 1975
TTITLE7=Va veni o clipă - 1971
TTITLE8=Vulture de-aramă - 1981
TTITLE9=Nu mă uita de tot - 1980
TTITLE10=Îţi mulţumesc - 1985
TTITLE11=Inimă nu fi de piatră - 1971
TTITLE12=Uneori suntem toţi copii - 1978
TTITLE13=Trenul fericirii - 1988
TTITLE14=Dorule, doruţule - 1982
TTITLE15=Ţara mea cu ochi frumoşi - 1973
TTITLE16=Nu te enerva - 1985
TTITLE17=Nu, nu, nu! - 1983
TTITLE18=Unde erai? - 1981
TTITLE19=Opriţi timpul! - 1972
TTITLE20=Rămâne o artistă - 1987
EXTD=
EXTT0=
EXTT1=
EXTT2=
EXTT3=
EXTT4=
EXTT5=
EXTT6=
EXTT7=
EXTT8=
EXTT9=
EXTT10=
EXTT11=
EXTT12=
EXTT13=
EXTT14=
EXTT15=
EXTT16=
EXTT17=
EXTT18=
EXTT19=
EXTT20=
PLAYORDER=
